/* XPM */
static char *_000ceb11d474434e985f86d7019ed5b4y17ahDCVjOAekAJ[] = {
/* columns rows colors chars-per-pixel */
"64 64 21 1 ",
"  c None",
". c #409FDC",
"X c #409FDD",
"o c #419FDD",
"O c #409FDE",
"+ c #4CA5DF",
"@ c #58ABE1",
"# c #64B1E3",
"$ c #70B7E5",
"% c #7CBDE7",
"& c #88C3E9",
"* c #94C9EB",
"= c #A0CFEE",
"- c #ABD5F0",
"; c #B7DBF2",
": c #C3E1F4",
"> c #CFE7F6",
", c #DBEDF8",
"< c #E7F3FA",
"1 c #F3F9FC",
"2 c white",
/* pixels */
"                      X            XXXXXXXXX                    ",
"                    XXX          XXXXXXXXXXXX                   ",
"                  XXXXX         XXXXXXXXXXXXXXX                 ",
"                  XXXXX      XXXXXXXXXXXXXXXXXXX                ",
"                 XXXXXX   XXXXXXXXXXXXXXXXXXXXXX                ",
"                XXXXXXX XXXXXXXXXXXXXXXXXXXXXXX                 ",
"               XXXXXXXXXXXXXXXXXXXXXXXXXXXXXXX                  ",
"              XXXXXXXXXXXXXXXXXXXXXXXXXXXXXXX                   ",
"              XXXXXXXXXXXXXXXXXXXXXXXXXXXXXXX                   ",
"             XXXXXXXXXXXXXXXXXXXXXXXXXXXXXXXXXXX                ",
"            XXXXXXXXXXXXXXXXXXXXXXXXXXXXXXXXXXXXXX              ",
"            XXXXXXXXXXXXXXXXXXXXXXXXXXXXXXXXXXXXXXXX            ",
"           XXXXXXXXXXXXXXXXX#$$$$$$#XXXXXXXXXXXXXXXXXX          ",
"           XXXXXXXXXXXXX+&>2222222222>&+XXXXXXXXXXXXXXXX        ",
"          XXXXXXXXXXXX@;1222222222222221-@XXXXXXXXXXXXXXX       ",
"    X     XXXXXXXXXX+-22222222222222222221=+XXXXXXXXXXXXXX      ",
"   XX    XXXXXXXXXX$<2222222222222222222222,@XXXXXXXXXXXXXX     ",
"  XXXX   XXXXXXXXX&22222222222222222222222221#XXXXXXXXXXXXXXX   ",
" XXXXXX XXXXXXXXX#222222222222222222222222222<+XXXXXXXXXXXXXXX  ",
" XXXXXXXXXXXXXXX#12222222222222222222222222222,+XXXXXXXXXXXXXX  ",
" XXXXXXXXXXXXXX+,222222222222222222222222222222:XXXXXXXXXXXXXXX ",
" XXXXXXXXXXXXXX=22222222222222222222222222222222&XXXXXXXXXXXXXXX",
" XXXXXXXXXXXXX@2222222222222222222222222222222221+XXXXXXXXXXXXX ",
" XXXXXXXXXXXXX;2222222222222222222222222222222222;XXXXXXXX  XX  ",
" XXXXXXXXXXXX@222222222222222222222222222222222221+XXXXXXXX  X  ",
" XXXXXXXXXXXX*222222222222222222222222222222222222*XXXXXXXX     ",
"  XXXXXXXXXXX,222222222222222222222222222222222222,XXXXXXXX     ",
"  XXXXXXXXXX+22222222222222222222222222222222222222XXXXXXXXX    ",
"  XXXXXXXXXX$22222222222222222222222222222222222222$XXXXXXXX    ",
"  XXXXXXXXXX*22222222222222222222222222222222222222&XXXXXXXXX   ",
"  XXXXXXXXXX=22222222222222222222222222222222222222=XXXXXXXXX   ",
"  XXXXXXXXXX=22222222222222222222222222222222222222=XXXXXXXXX   ",
"   XXXXXXXXX=22222222222222222222222222222222222222=XXXXXXXXXX  ",
"   XXXXXXXXX=22222222222222222222222222222222222222=XXXXXXXXXX  ",
"   XXXXXXXXX&22222222222222222222222222222222222222&XXXXXXXXXX  ",
"    XXXXXXXX$22222222222222222222222222222222222222$XXXXXXXXXX  ",
"    XXXXXXXX+22222222222222222222222222222222222222+XXXXXXXXXX  ",
"    XXXXXXXXX,222222222222222222222222222222222222,XXXXXXXXXXX  ",
"     XXXXXXXX-222222222222222222222222222222222222-XXXXXXXXXXXX ",
"   X XXXXXXXX#222222222222222222222222222222222222@XXXXXXXXXXXX ",
"  XX  XXXXXXXX>2222222222222222222222222222222222:XXXXXXXXXXXXX ",
" XXXXXXXXXXXXX$2222222222222222222222222222222222$XXXXXXXXXXXXX ",
"XXXXXXXXXXXXXXX>22222222222222222222222222222222-XXXXXXXXXXXXXX ",
" XXXXXXXXXXXXXX+1222222222222222222222222222222,+XXXXXXXXXXXXXX ",
" XXXXXXXXXXXXXXX$222222222222222222222222222221#XXXXXXXXXXXXXXX ",
"  XXXXXXXXXXXXXXX&2222222222222222222222222221#XXXXXXXXX XXXXXX ",
"    XXXXXXXXXXXXXX#1222222222222222222222222,+XXXXXXXXX   XXXX  ",
"     XXXXXXXXXXXXXX#12222222222222222222222,+XXXXXXXXXX     XX  ",
"      XXXXXXXXXXXXXX@:22222222222222222222;+XXXXXXXXXX       X  ",
"       XXXXXXXXXXXXXXX%12222222222222222,%XXXXXXXXXXXX          ",
"        XXXXXXXXXXXXXXXX&,222222222222,&XXXXXXXXXXXXX           ",
"          XXXXXXXXXXXXXXXX@&;>>>>>>;&@XXXXXXXXXXXXXXX           ",
"            XXXXXXXXXXXXXXXXXXXXXXXXXXXXXXXXXXXXXXXX            ",
"             XXXXXXXXXXXXXXXXXXXXXXXXXXXXXXXXXXXXXXX            ",
"                XXXXXXXXXXXXXXXXXXXXXXXXXXXXXXXXXXX             ",
"                  XXXXXXXXXXXXXXXXXXXXXXXXXXXXXXXXX             ",
"                   XXXXXXXXXXXXXXXXXXXXXXXXXXXXXXX              ",
"                  XXXXXXXXXXXXXXXXXXXXXXXXXXXXXXX               ",
"                 XXXXXXXXXXXXXXXXXXXXXXXXXXXXXXX                ",
"                 XXXXXXXXXXXXXXXXXXXXX   XXXXXX                 ",
"                XXXXXXXXXXXXXXXXXXX      XXXXXX                 ",
"                XXXXXXXXXXXXXXXX         XXXX                   ",
"                  XXXXXXXXX              XXX                    ",
"                                          X                     "
};
