/* XPM */
static char *aca2de825c1a4ce99fd17446019fa5ebEmFE6ooI80RMeOLv[] = {
/* columns rows colors chars-per-pixel */
"96 96 9 1 ",
"  c None",
". c #2B2525",
"X c #504646",
"o c #C66144",
"O c #D69A7C",
"+ c #5B8CB5",
"@ c #FCC9A7",
"# c #FDD6BB",
"$ c white",
/* pixels */
"                                                                                                ",
"                                                                                                ",
"                                                                                                ",
"                                                                                                ",
"                                                                                                ",
"                                                                                                ",
"                                                                                                ",
"                                                                                                ",
"                                                                                                ",
"                                                                                                ",
"                     ........                                        ........                   ",
"                     ........                                        ........                   ",
"                     ..XXXXXX......   ......................   ......XXXXXX..                   ",
"                     ..XXXXXXXXXXXX...XXXXXXXXXXXXXXXXXXXXXX...XXXXXXXXXXXX..                   ",
"                     ..XXXXXXXXXXXX...XXXXXXXXXXXXXXXXXXXXXX...XXXXXXXXXXXX..                   ",
"                     ..XXXXXXXXXXXXXXXXXXXXXXXXXXXXXXXXXXXXXXXXXXXXXXXXXXXX..                   ",
"                     ..XXXXXXXXXXXXXXXXXXXXXXXXXXXXXXXXXXXXXXXXXXXXXXXXXXXX..                   ",
"                     ..XXXXXXXXXXXXXXXXXXXXXXXXXXXXXXXXXXXXXXXXXXXXXXXXXXXX..                   ",
"                     ..XXXXXXXXXXXXXXXXXXXXXXXXXXXXXXXXXXXXXXXXXXXXXXXXXXXX..                   ",
"                       ..XXXXXXXXXXXXXXXXXXXXXXXXXXXXXXXXXXXXXXXXXXXXXXXX..                     ",
"                       ..XXXXXXXXXXXXXXXXXXXXXXXXXXXXXXXXXXXXXXXXXXXXXXXX..                     ",
"                       ..XXXXXXXXXXXXXXXXXXXXXXXXXXXXXXXXXXXXXXXXXXXXXXXX..                     ",
"                       ..XXXXXXXXXXXXXXXXXXXXXXXXXXXXXXXXXXXXXXXXXXXXXXXX..                     ",
"                     ....XXXXXXXXXXXXXXXXXXXXXXXXXXXXXXXXXXXXXXXXXXXXXXXX....                   ",
"                     ....XXXXXXXXXXXXXXXXXXXXXXXXXXXXXXXXXXXXXXXXXXXXXXXX....                   ",
"                     ..XXXXXXXXXXXXXXXXXXXXXXXXXXXXXXXXXXXXXXXXXXXXXXXXXXXX..                   ",
"                     ..XXXXXXXXXXXXXXXXXXXXXXXXXXXXXXXXXXXXXXXXXXXXXXXXXXXX..                   ",
"                   ....XXXXXXXXXXXXXXXXXXXXXXXXXXXXXXXXXXXXXXXXXXXXXXXXXXXX....                 ",
"                   ....XXXXXXXXXXXXXXXXXXXXXXXXXXXXXXXXXXXXXXXXXXXXXXXXXXXX....                 ",
"                   ..XXXXXXXXXXXX.........XXXXXXXXXXXXXX.........XXXXXXXXXXXX..                 ",
"                   ..XXXXXXXXXXXX.........XXXXXXXXXXXXXX.........XXXXXXXXXXXX..                 ",
"                   ..XXXXXXXX....OOOOOOOOOOOOOOOOOOOOOOOOOOOOOOOO....XXXXXXXX..                 ",
"                   ..XXXXXXXX....OOOOOOOOOOOOOOOOOOOOOOOOOOOOOOOO....XXXXXXXX..                 ",
"                   ..XXXXXX..OOOO@@@@@@@@@@@@@@@@@@@@@@@@@@@@@@@@OOOO..XXXXXX..                 ",
"                   ..XXXXXX..OOOO@@@@@@@@@@@@@@@@@@@@@@@@@@@@@@@@OOOO..XXXXXX..                 ",
"                   ..XXXX..OO@@##$$$##@@@@@@@@@@@@@@@@@@@@@@#$$$$##@@OO..XXXX..                 ",
"                   ..XXXX..OO@@$$OOoOO##@@@@@@@@@@@@@@@@@@##OooOO$$@@OO..XXXX..                 ",
"                   ..XXXX..OO@@$$OOoOO##@@@@@@@@@@@@@@@@@@##OooOO$$@@OO..XXXX..                 ",
"                   ..XXXX..@@@@$$oo$oo##@@@@@@@@@@@@@@@@@@##o$$oo$$@@@@..XXXX..                 ",
"                   ..XXXX..@@@@$$oo$oo##@@@@@@@@@@@@@@@@@@##o$$oo$$@@@@..XXXX..                 ",
"                   ....XX..@@@@$$ooooo##@@@@@@@@@@@@@@@@@@##ooooo$$@@@@..XX....                 ",
"                   ....XX..@@@@$$ooooo##@@@@@@@@@@@@@@@@@@##ooooo$$@@@@..XX....                 ",
"            ...............@@@@$$ooooo##@@@@@@@@@@@@@@@@@@##ooooo$$@@@@...............          ",
"            ...............@@@@$$ooooo##@@@@@@@@@@@@@@@@@@##ooooo$$@@@@...............          ",
"      ......         ......OO@@$$OOoOO##@@@@@@@@oo@@@@@@@@##OooOO$$@@OO......         ......    ",
"      ......         ......OO@@$$OOoOO##@@@@@@@@oo@@@@@@@@##OooOO$$@@OO......         ......    ",
"               ..............@@##$$$##@@@@@@@@@@@@@@@@@@@@@@#$$$$##@@..............             ",
"               ..............@@##$$$##@@@@@@@@@@@@@@@@@@@@@@#$$$$##@@..............             ",
"          .....        ......@@@@@@@@@@@@@@@oo@@@@@@oo@@@@@@@@@@@@@@@......        .....        ",
"          .....        ......@@@@@@@@@@@@@@@oo@@@@@@oo@@@@@@@@@@@@@@@......        .....        ",
"      ....               ......OO@@@@@@@@@@@OOooooooOO@@@@@@@@@@@OO......               ....    ",
"      ....               ......OO@@@@@@@@@@@OOooooooOO@@@@@@@@@@@OO......               ....    ",
"                           ........O@@@@@@@@@@@@@@@@@@@@@@@@@OO........                         ",
"                           ........O@@@@@@@@@@@@@@@@@@@@@@@@@OO........                         ",
"            .....              ....................................                             ",
"            .....              ....................................                             ",
"          .....XX++..                 ..XXXXXXXXXXXXXXXXXX..                                    ",
"          .....XX++..                 ..XXXXXXXXXXXXXXXXXX..                                    ",
"          ..   ..XXXX..             ..XXXXXXXXXXXXXXXXXXXXXX.                                   ",
"          ..   ..XXXX..             ..XXXXXXXXXXXXXXXXXXXXXX.                                   ",
"                 ..XX++..          .XXXXXXXXXXXXXXXXXXXXXXXXX..                                 ",
"                   ..XXXX....      .XXXX....XXXX..XXXX....XXX..                                 ",
"                   ..XXXX....      .XXXX....XXXX..XXXX....XXX..                                 ",
"                   ....XX++........XXX..  ..XX..  ..XX..  ..XXX..                               ",
"                   ....XX++........XXX..  ..XX..  ..XX..  ..XXX..                               ",
"                     ......XXXX++..X....  ..XX..  ..XX..  ...XX..                               ",
"                     ......XXXX++..X....  ..XX..  ..XX..  ...XX..                               ",
"                         ..........X....  ..XX..  ..XX..  ...XX..                               ",
"                         ..........X....  ..XX..  ..XX..  ...XX..                               ",
"                                 ..X....  ......  ......  ...XX..                               ",
"                                 ..X....  ......  ......  ...XX..                               ",
"                                 .....    ......  ......    .....                               ",
"                                 .....    ......  ......    .....                               ",
"                               ..XX...    ......  ......    ...XX..                             ",
"                               ..XX...    ......  ......    ...XX..                             ",
"                               ..XX.      ......  ......     ..XX..                             ",
"                               ..XX.      ......  ......     ..XX..                             ",
"                               .....      ......  ......     ......                             ",
"                               .....      ......  ......     ......                             ",
"                             .......    ........  ........   ........                           ",
"                             .......    ........  ........   ........                           ",
"                           ........     ........  ........     ........                         ",
"                           ........     ........  ........     ........                         ",
"                           ......     ........      ........     ......                         ",
"                                    ..........      .........                                   ",
"                                    ..........      .........                                   ",
"                                    ......              .....                                   ",
"                                    ......              .....                                   ",
"                                                                                                ",
"                                                                                                ",
"                                                                                                ",
"                                                                                                ",
"                                                                                                ",
"                                                                                                ",
"                                                                                                ",
"                                                                                                "
};
