/* XPM */
static char *_f7ebe1316b74893c730315f89fe5514IoPvHwENPqAAm0Cv[] = {
/* columns rows colors chars-per-pixel */
"96 96 9 1 ",
"  c None",
". c #2B2525",
"X c #504646",
"o c #C66144",
"O c #D69A7C",
"+ c #5B8CB5",
"@ c #FCC9A7",
"# c #FDD6BB",
"$ c white",
/* pixels */
"                                                                                                ",
"                                                                                                ",
"                                                                                                ",
"                                                                                                ",
"                                                                                                ",
"                                                                                                ",
"                                                                                                ",
"                                                                                                ",
"                                                                                                ",
"                                                                                                ",
"                                                                                                ",
"                                                                                                ",
"                                                                                                ",
"                     ........                                        ........                   ",
"                     ........                                        ........                   ",
"                     ..XXXXXX......   ......................   ......XXXXXX..                   ",
"                     ..XXXXXX......   ......................   ......XXXXXX..                   ",
"                     ..XXXXXXXXXXXX...XXXXXXXXXXXXXXXXXXXXXX...XXXXXXXXXXXX..                   ",
"                     ..XXXXXXXXXXXX...XXXXXXXXXXXXXXXXXXXXXX...XXXXXXXXXXXX..                   ",
"                     ..XXXXXXXXXXXXXXXXXXXXXXXXXXXXXXXXXXXXXXXXXXXXXXXXXXXX..                   ",
"                     ..XXXXXXXXXXXXXXXXXXXXXXXXXXXXXXXXXXXXXXXXXXXXXXXXXXXX..                   ",
"                     ..XXXXXXXXXXXXXXXXXXXXXXXXXXXXXXXXXXXXXXXXXXXXXXXXXXXX..                   ",
"                     ..XXXXXXXXXXXXXXXXXXXXXXXXXXXXXXXXXXXXXXXXXXXXXXXXXXXX..                   ",
"                       ..XXXXXXXXXXXXXXXXXXXXXXXXXXXXXXXXXXXXXXXXXXXXXXXX..                     ",
"                       ..XXXXXXXXXXXXXXXXXXXXXXXXXXXXXXXXXXXXXXXXXXXXXXXX..                     ",
"                       ..XXXXXXXXXXXXXXXXXXXXXXXXXXXXXXXXXXXXXXXXXXXXXXXX..                     ",
"                       ..XXXXXXXXXXXXXXXXXXXXXXXXXXXXXXXXXXXXXXXXXXXXXXXX..                     ",
"                     ....XXXXXXXXXXXXXXXXXXXXXXXXXXXXXXXXXXXXXXXXXXXXXXXX....                   ",
"                     ....XXXXXXXXXXXXXXXXXXXXXXXXXXXXXXXXXXXXXXXXXXXXXXXX....                   ",
"                     ..XXXXXXXXXXXXXXXXXXXXXXXXXXXXXXXXXXXXXXXXXXXXXXXXXXXX..                   ",
"                     ..XXXXXXXXXXXXXXXXXXXXXXXXXXXXXXXXXXXXXXXXXXXXXXXXXXXX..                   ",
"                   ....XXXXXXXXXXXXXXXXXXXXXXXXXXXXXXXXXXXXXXXXXXXXXXXXXXXX....                 ",
"                   ....XXXXXXXXXXXXXXXXXXXXXXXXXXXXXXXXXXXXXXXXXXXXXXXXXXXX....                 ",
"                   ..XXXXXXXXXXXX.........XXXXXXXXXXXXXX.........XXXXXXXXXXXX..                 ",
"                   ..XXXXXXXXXXXX.........XXXXXXXXXXXXXX.........XXXXXXXXXXXX..                 ",
"                   ..XXXXXXXX....OOOOOOOOOOOOOOOOOOOOOOOOOOOOOOOO....XXXXXXXX..                 ",
"                   ..XXXXXX..OOOO@@@@@@@@@@@@@@@@@@@@@@@@@@@@@@@@OOOO..XXXXXX..                 ",
"                   ..XXXXXX..OOOO@@@@@@@@@@@@@@@@@@@@@@@@@@@@@@@@OOOO..XXXXXX..                 ",
"                   ..XXXX..OO@@##$$$##@@@@@@@@@@@@@@@@@@@@@@#$$$$##@@OO..XXXX..                 ",
"                   ..XXXX..OO@@##$$$##@@@@@@@@@@@@@@@@@@@@@@#$$$$##@@OO..XXXX..                 ",
"                   ..XXXX..OO@@$$OOoOO##@@@@@@@@@@@@@@@@@@##OooOO$$@@OO..XXXX..                 ",
"                   ..XXXX..OO@@$$OOoOO##@@@@@@@@@@@@@@@@@@##OooOO$$@@OO..XXXX..                 ",
"                   ..XXXX..@@@@$$oo$oo##@@@@@@@@@@@@@@@@@@##o$$oo$$@@@@..XXXX..                 ",
"                   ..XXXX..@@@@$$oo$oo##@@@@@@@@@@@@@@@@@@##o$$oo$$@@@@..XXXX..                 ",
"                   ....XX..@@@@$$ooooo##@@@@@@@@@@@@@@@@@@##ooooo$$@@@@..XX....                 ",
"                   ....XX..@@@@$$ooooo##@@@@@@@@@@@@@@@@@@##ooooo$$@@@@..XX....                 ",
"      .....................@@@@$$ooooo##@@@@@@@@@@@@@@@@@@##ooooo$$@@@@.....................    ",
"      .....................@@@@$$ooooo##@@@@@@@@@@@@@@@@@@##ooooo$$@@@@.....................    ",
"                     ......OO@@$$OOoOO##@@@@@@@@oo@@@@@@@@##OooOO$$@@OO......                   ",
"                     ......OO@@$$OOoOO##@@@@@@@@oo@@@@@@@@##OooOO$$@@OO......                   ",
"             ................@@##$$$##@@@@@@@@@@@@@@@@@@@@@@#$$$$##@@...............            ",
"             ................@@##$$$##@@@@@@@@@@@@@@@@@@@@@@#$$$$##@@...............            ",
"        .....          ......@@@@@@@@@@@@@@@oo@@@@@@oo@@@@@@@@@@@@@@@......         ......      ",
"        .....          ......@@@@@@@@@@@@@@@oo@@@@@@oo@@@@@@@@@@@@@@@......         ......      ",
"      ..                 ......OO@@@@@@@@@@@OOooooooOO@@@@@@@@@@@OO......                 ..    ",
"      ..                 ......OO@@@@@@@@@@@OOooooooOO@@@@@@@@@@@OO......                 ..    ",
"                           ........O@@@@@@@@@@@@@@@@@@@@@@@@@OO........                         ",
"                           ........O@@@@@@@@@@@@@@@@@@@@@@@@@OO........                         ",
"                               ....................................                             ",
"                               ....................................                             ",
"                                      ..XXXXXXXXXXXXXXXXXX..                                    ",
"                       ........     ..XXXXXXXXXXXXXXXXXXXXXX.                                   ",
"                       ........     ..XXXXXXXXXXXXXXXXXXXXXX.                                   ",
"                 ......++XXXX++.....XXXXXXXXXXXXXXXXXXXXXXXXX..                                 ",
"                 ......++XXXX++.....XXXXXXXXXXXXXXXXXXXXXXXXX..                                 ",
"             ....++XXXX............XXXXX....XXXX..XXXX....XXXXX..                               ",
"             ....++XXXX............XXXXX....XXXX..XXXX....XXXXX..                               ",
"            .XXXX..................XXX..  ..XX..  ..XX..  ..XXX..                               ",
"            .XXXX..................XXX..  ..XX..  ..XX..  ..XXX..                               ",
"      .............            ..XXX....  ..XX..  ..XX..  ...XXXX..                             ",
"      .............            ..XXX....  ..XX..  ..XX..  ...XXXX..                             ",
"          .....                ..XX...    ..XX..  ..XX..    ...XX..                             ",
"          .....                ..XX...    ..XX..  ..XX..    ...XX..                             ",
"                             ..XX...    ..XX....  ....XX..   ....XX..                           ",
"                             ..XX...    ..XX....  ....XX..   ....XX..                           ",
"                           ..XX.....    ........  ........   ......XX..                         ",
"                           ..XX.....    ........  ........   ......XX..                         ",
"                     ......XX......     ........  ........     ......XX......                   ",
"                     ......XX......     ........  ........     ......XX......                   ",
"                   ..............     ........      ........     ..............                 ",
"                   ..............     ........      ........     ..............                 ",
"                     ........         ........      ........         ........                   ",
"                     ........         ........      ........         ........                   ",
"                                   ...........      ...........                                 ",
"                                 .........              .........                               ",
"                                 .........              .........                               ",
"                                   .....                  .....                                 ",
"                                   .....                  .....                                 ",
"                                                                                                ",
"                                                                                                ",
"                                                                                                ",
"                                                                                                ",
"                                                                                                ",
"                                                                                                ",
"                                                                                                ",
"                                                                                                "
};
