/* XPM */
static char *c5b64a905bf64317d6d0245587730412PcWT8UP6iOe8H1n6[] = {
/* columns rows colors chars-per-pixel */
"64 64 16 1 ",
"  c None",
". c #89A3A5",
"X c #88A4A5",
"o c #89A4A5",
"O c #88A4A6",
"+ c #89A4A6",
"@ c #8AA5A7",
"# c #8DA9AB",
"$ c #8EABAD",
"% c #91AEB0",
"& c #94B2B4",
"* c #9AB9BB",
"= c #9EBEC0",
"- c #A0C0C1",
"; c #A0C0C2",
": c #A0C1C2",
/* pixels */
"  ------------------------------------------------------------  ",
" -------------------------------------------------------------- ",
"-=&$$++++++++++++++++++++++++++++++++++++++++++++++++++++++$$&=-",
"=#++++++++++++++++++++++++++++++++++++++++++++++++++++++++++++#=",
"%++++++++++++++++++++++++++++++++++++++++++++++++++++++++++++++%",
"+++++*-------------++++++---------------------------------*+++++",
"+++++--------------++++++----------------------------------+++++",
"+++++--------------++++++----------------------------------+++++",
"+++++--------------++++++----------------------------------+++++",
"+++++--------------++++++----------------------------------+++++",
"+++++--------------++++++----------------------------------+++++",
"+++++--------------++++++----------------------------------+++++",
"+++++--------------++++++----------------------------------+++++",
"+++++--------------++++++----------------------------------+++++",
"+++++--------------++++++----------------------------------+++++",
"+++++--------------++++++----------------------------------+++++",
"+++++--------------++++++----------------------------------+++++",
"+++++--------------++++++----------------------------------+++++",
"+++++--------------++++++----------------------------------+++++",
"+++++--------------++++++----------------------------------+++++",
"+++++--------------++++++----------------------------------+++++",
"+++++--------------++++++----------------------------------+++++",
"+++++--------------++++++----------------------------------+++++",
"+++++--------------++++++----------------------------------+++++",
"+++++--------------++++++----------------------------------+++++",
"+++++--------------++++++----------------------------------+++++",
"+++++--------------++++++----------------------------------+++++",
"+++++--------------++++++----------------------------------+++++",
"+++++--------------++++++----------------------------------+++++",
"++++++++++++++++++++++++++++++++++++++++++++++++++++++++++++++++",
"++++++++++++++++++++++++++++++++++++++++++++++++++++++++++++++++",
"++++++++++++++++++++++++++++++++++++++++++++++++++++++++++++++++",
"++++++++++++++++++++++++++++++++++++++++++++++++++++++++++++++++",
"++++++++++++++++++++++++++++++++++++++++++++++++++++++++++++++++",
"++++++++++++++++++++++++++++++++++++++++++++++++++++++++++++++++",
"+++++----------------------------------++++++--------------+++++",
"+++++----------------------------------++++++--------------+++++",
"+++++----------------------------------++++++--------------+++++",
"+++++----------------------------------++++++--------------+++++",
"+++++----------------------------------++++++--------------+++++",
"+++++----------------------------------++++++--------------+++++",
"+++++----------------------------------++++++--------------+++++",
"+++++----------------------------------++++++--------------+++++",
"+++++----------------------------------++++++--------------+++++",
"+++++----------------------------------++++++--------------+++++",
"+++++----------------------------------++++++--------------+++++",
"+++++----------------------------------++++++--------------+++++",
"+++++----------------------------------++++++--------------+++++",
"+++++----------------------------------++++++--------------+++++",
"+++++----------------------------------++++++--------------+++++",
"+++++----------------------------------++++++--------------+++++",
"+++++----------------------------------++++++--------------+++++",
"+++++----------------------------------++++++--------------+++++",
"+++++----------------------------------++++++--------------+++++",
"+++++----------------------------------++++++--------------+++++",
"+++++----------------------------------++++++--------------+++++",
"+++++----------------------------------++++++--------------+++++",
"+++++----------------------------------++++++--------------+++++",
"+++++=---------------------------------++++++-------------=+++++",
"++++++++++++++++++++++++++++++++++++++++++++++++++++++++++++++++",
"++++++++++++++++++++++++++++++++++++++++++++++++++++++++++++++++",
"++++++++++++++++++++++++++++++++++++++++++++++++++++++++++++++++",
" .++++++++++++++++++++++++++++++++++++++++++++++++++++++++++++. ",
"  ++++++++++++++++++++++++++++++++++++++++++++++++++++++++++++  "
};
